<svg xmlns="http://www.w3.org/2000/svg" version="1.1" xmlns:xlink="http://www.w3.org/1999/xlink" xmlns:svgjs="http://svgjs.dev/svgjs" width="1000" height="1000" viewBox="0 0 1000 1000"><rect width="1000" height="1000" fill="#000000"></rect><g transform="matrix(0.7,0,0,0.7,150.0000000000001,106.25)"><svg viewBox="0 0 320 360" data-background-color="#1f0f53" preserveAspectRatio="xMidYMid meet" height="1125" width="1000" xmlns="http://www.w3.org/2000/svg" xmlns:xlink="http://www.w3.org/1999/xlink"><g id="tight-bounds" transform="matrix(1,0,0,1,0,0)"><svg viewBox="0 0 320 360" height="360" width="320"><g><svg></svg></g><g><svg viewBox="0 0 320 360" height="360" width="320"><g><path xmlns="http://www.w3.org/2000/svg" d="M20.961 227.22l3.726 4.658-1.863-6.056c-0.466-2.795-3.726 0.466-1.863 1.398M25.153 224.425c1.397 2.329 2.795 4.658 2.795 6.987 0 3.261 2.795 4.658 5.123 5.589-3.261-3.726-5.124-13.974-7.918-12.576M204.017 26.929c7.918 0 15.371-0.932 23.756 0.931 20.495 5.124 37.729 15.371 49.374 29.811l32.606 52.169c1.397 13.042 4.192 27.482 3.726 43.319 3.261 0 2.795-4.658 6.521-5.59-3.726 9.316-5.59 20.961-6.521 34.469-2.329-7.453 0-18.632 0.466-24.687-3.261 5.124-5.124 1.397-5.124-0.932 0.466-3.726-1.397-3.261-2.795-4.658-5.124-4.658-8.384-9.782-12.11-17.7 2.329-6.055 2.795-14.905-4.658-19.563-2.329-1.397-5.124-3.726-6.521-7.453-1.863-5.124-5.124-11.179-4.193-19.097 0.466-2.329-6.987 5.124-11.179 1.863-18.166-12.576-36.332-27.016-58.224-39.127-11.645 0-20.029-4.192-24.221-9.316-3.726-4.658-0.932-10.713 4.658-11.179 3.261 0 6.987-0.932 9.782 0.932 0.466-1.863 2.329-4.192 4.657-4.192M157.904 16.215l0.932 0.466c4.658 0.932 6.987 7.453 12.11 5.124 0 3.261 0.466 6.521-0.466 8.85-1.397 3.726-5.59 3.726-8.85 3.726-31.208-1.863-49.374 11.179-68.471 22.358-5.124 3.261-10.713 5.59-14.906 9.782-20.029 18.632-41.921 35.866-47.045 70.335l-4.192 38.195c-0.466 4.192-5.124 8.384-4.192 13.508l3.26 22.824c-3.261-3.261-5.124 0.932-4.192 2.795 0.466 1.397 2.329 6.055 5.124 1.863 3.726 6.987 7.453 20.495 12.576 26.55 15.837 18.632 36.332 35.4 53.101 52.169 4.192-0.932 7.453-0.932 8.384-3.727 1.397 2.795-1.397 5.59-3.726 6.056 7.453 4.658 15.837 8.85 27.016 9.781 14.44 0.932 27.948 3.261 40.524 6.522 6.521-1.863 13.042-2.795 20.029-3.261 2.329 0 3.726-3.726 6.521-4.658l0.466-4.658c2.795 4.192 2.329-1.397 0.466-4.192 3.261 2.795 4.192 5.124 5.589 6.987 0-1.397 3.726-6.521 3.727-0.466l0.931-6.055c1.397-0.932 1.863 5.124 3.261 0.931 1.397-4.192 4.192-0.932 6.987-2.329-0.932 1.863-0.466 5.59 2.794 3.261l3.727-3.261c2.329 5.59 6.055 3.261 7.918 2.329 20.495-13.042 40.99-28.413 60.553-43.784l-0.466 6.055 2.329-7.453c2.329 2.329 4.192 0.466 5.124-0.931 2.795-4.658 6.521-9.316 12.577-13.508-7.453 20.029-16.303 35.866-27.482 48.908l-4.658 5.59c0 3.261-0.932 7.453-4.658 7.918-1.863 0.466-5.59-0.932-8.384 1.863-1.397 1.863 3.261 5.59-0.466 2.795-3.261-2.329-6.521 0-10.248 0.932-2.795 0.932 1.863 3.726 2.795 5.589 0.932 1.863 1.863 3.726 1.398 6.056l-5.124-5.59c-6.055 3.261-9.782 9.316-14.906 13.974-2.329 1.863-1.397 5.124-1.397 7.918-3.261 0-6.987-0.932-8.85 0.932-1.397 1.863-0.932 4.658-0.932 7.453-4.658-0.466-5.124-7.453-9.315-6.056-4.192 0.932-8.85 1.397-12.577 3.727 2.795 5.59-4.658 2.329-3.726 3.26-6.987-4.192-13.042-7.453-20.495-4.658-15.837-5.124-35.4-2.795-49.84-0.931 0-2.329 0.466-4.658-0.466-5.124-0.932 2.329-3.726 1.397-3.26 1.397-8.85-6.055-17.7-9.782-27.016-14.905-8.384 0.932-16.303-3.261-18.632-5.59-6.521-6.055-13.974-2.795-20.029-4.192-13.042-3.261-17.7-16.769-19.098-26.084-0.932-4.658-4.658-6.521-6.055-6.056-6.055-19.563-15.371-37.263-22.824-55.429-1.863-4.658-1.397-9.316-1.397-14.44 2.329 0.932 4.658 0.466 4.192-2.794-2.329-15.371-7.918-27.016-13.974-38.195 3.261-15.837 3.726-34.469 11.179-48.443 6.521-12.576 18.632-19.098 27.016-29.811 2.795-3.726 2.795-8.85 5.59-12.11 9.316-9.316 18.632-19.098 28.879-27.482 4.658-3.726 10.247 0 17.234-1.397 2.329-8.384 11.645-15.837 20.495-13.508 3.726 0.932 11.179-8.85 13.508-9.782 3.726-1.397 1.863 3.726 1.863 6.987 8.85-6.987 20.961-10.713 32.14-14.906" fill="#ffffff" fill-rule="nonzero" stroke="none" stroke-width="1" stroke-linecap="butt" stroke-linejoin="miter" stroke-miterlimit="10" stroke-dasharray="" stroke-dashoffset="0" font-family="none" font-weight="none" font-size="none" text-anchor="none" style="mix-blend-mode: normal" data-fill-palette-color="tertiary"></path></g><g transform="matrix(1,0,0,1,64,164.74694960212202)"><svg viewBox="0 0 192 30.50610079575597" height="30.50610079575597" width="192"><g><svg viewBox="0 0 192 30.50610079575597" height="30.50610079575597" width="192"><g><svg viewBox="0 0 192 30.50610079575597" height="30.50610079575597" width="192"><g><svg viewBox="0 0 192 30.50610079575597" height="30.50610079575597" width="192"><g id="textblocktransform"><svg viewBox="0 0 192 30.50610079575597" height="30.50610079575597" width="192" id="textblock"><g><svg viewBox="0 0 192 30.50610079575597" height="30.50610079575597" width="192"><g transform="matrix(1,0,0,1,0,0)"><svg width="192" viewBox="3 -29.450000762939453 188.49000549316406 29.950000762939453" height="30.50610079575597" data-palette-color="#ffdb99"><path d="M26.2 0L9.6 0Q6.2 0 4.6-0.3 3-0.6 3-1L3-1 5-5.35Q6.15-5.15 10.73-4.98 15.3-4.8 23.3-4.8L23.3-4.8 24.25-4.8Q26.4-4.8 27.3-5.58 28.2-6.35 28.2-8.2L28.2-8.2 28.2-9.2Q28.2-10.95 27.48-11.7 26.75-12.45 24.25-12.45L24.25-12.45 12.65-12.45Q7.6-12.45 5.3-14.33 3-16.2 3-20.45L3-20.45 3-21.25Q3-23.45 3.83-25.3 4.65-27.15 6.65-28.28 8.65-29.4 12.15-29.4L12.15-29.4 25.75-29.4Q29.15-29.4 31.25-29.05 33.35-28.7 33.35-28.3L33.35-28.3 32.35-24.1Q31.05-24.25 26.45-24.43 21.85-24.6 14.1-24.6L14.1-24.6 13.55-24.65Q11.25-24.65 10.45-23.73 9.65-22.8 9.6-21.4L9.6-21.4 9.6-20.55Q9.6-18.9 10.53-18.07 11.45-17.25 13.6-17.25L13.6-17.25 24.7-17.25Q27.9-17.25 30.15-16.6 32.4-15.95 33.6-14.23 34.8-12.5 34.8-9.15L34.8-9.15 34.8-8.35Q34.8-4.6 32.88-2.3 30.95 0 26.2 0L26.2 0ZM48.4 0L41.8 0 41.8-29.4 48.4-29.4 48.4-17.2 68-17.2 68-29.4 74.6-29.4 74.6 0 68 0 68-12.4 48.4-12.4 48.4 0ZM105.55 0.5L90 0.5Q85.45 0.5 83.65-1.95 81.85-4.4 81.85-8.45L81.85-8.45 81.85-29.4 88.45-29.4 88.45-8.25Q88.45-5.9 89.6-5.1 90.75-4.3 92.45-4.3L92.45-4.3 103.05-4.3Q104.65-4.3 105.85-5.13 107.05-5.95 107.05-8.25L107.05-8.25 107.05-29.4 113.65-29.4 113.65-8.45Q113.65-5.75 112.9-3.75 112.15-1.75 110.4-0.63 108.65 0.5 105.55 0.5L105.55 0.5ZM144.64 0L120.89 0 120.89-29.45 142.64-29.45Q147.34-29.45 149.49-27.58 151.64-25.7 151.64-23.05L151.64-23.05 151.64-21.55Q151.64-19.5 150.77-18.18 149.89-16.85 148.89-16.3L148.89-16.3Q151.09-15.6 152.39-13.88 153.69-12.15 153.69-9.35L153.69-9.35 153.69-8.45Q153.69-6.95 153.34-5.45 152.99-3.95 152.02-2.73 151.04-1.5 149.27-0.75 147.49 0 144.64 0L144.64 0ZM127.49-24.65L127.49-17.65 141.59-17.65Q143.34-17.6 144.19-18.53 145.04-19.45 145.04-20.85L145.04-20.85 145.04-21.35Q145.04-22.5 144.24-23.58 143.44-24.65 141.24-24.65L141.24-24.65 127.49-24.65ZM127.49-12.75L127.49-4.8 143.24-4.8Q145.14-4.8 146.12-5.75 147.09-6.7 147.09-8.35L147.09-8.35 147.09-9.25Q147.09-10.8 145.94-11.78 144.79-12.75 142.14-12.75L142.14-12.75 127.49-12.75ZM182.89 0L166.29 0Q162.89 0 161.29-0.3 159.69-0.6 159.69-1L159.69-1 161.69-5.35Q162.84-5.15 167.42-4.98 171.99-4.8 179.99-4.8L179.99-4.8 180.94-4.8Q183.09-4.8 183.99-5.58 184.89-6.35 184.89-8.2L184.89-8.2 184.89-9.2Q184.89-10.95 184.17-11.7 183.44-12.45 180.94-12.45L180.94-12.45 169.34-12.45Q164.29-12.45 161.99-14.33 159.69-16.2 159.69-20.45L159.69-20.45 159.69-21.25Q159.69-23.45 160.52-25.3 161.34-27.15 163.34-28.28 165.34-29.4 168.84-29.4L168.84-29.4 182.44-29.4Q185.84-29.4 187.94-29.05 190.04-28.7 190.04-28.3L190.04-28.3 189.04-24.1Q187.74-24.25 183.14-24.43 178.54-24.6 170.79-24.6L170.79-24.6 170.24-24.65Q167.94-24.65 167.14-23.73 166.34-22.8 166.29-21.4L166.29-21.4 166.29-20.55Q166.29-18.9 167.22-18.07 168.14-17.25 170.29-17.25L170.29-17.25 181.39-17.25Q184.59-17.25 186.84-16.6 189.09-15.95 190.29-14.23 191.49-12.5 191.49-9.15L191.49-9.15 191.49-8.35Q191.49-4.6 189.57-2.3 187.64 0 182.89 0L182.89 0Z" opacity="1" transform="matrix(1,0,0,1,0,0)" fill="#ffffff" class="wordmark-text-0" data-fill-palette-color="primary" id="text-0"></path></svg></g></svg></g></svg></g></svg></g><g></g></svg></g></svg></g></svg></g></svg></g><defs></defs></svg><rect width="320" height="360" fill="none" stroke="none" visibility="hidden"></rect></g></svg></g></svg>